<mxfile host="app.diagrams.net" modified="2023-11-08T10:51:52.907Z" agent="Mozilla/5.0 (Windows NT 10.0; Win64; x64) AppleWebKit/537.36 (KHTML, like Gecko) Chrome/119.0.0.0 Safari/537.36" version="22.0.8" etag="v_7RjDF00h-vQ9675Oaw" type="github">
  <diagram name="Page-1" id="UsXS0MEJ_Z-ZEBi7lgBa">
    <mxGraphModel>
      <root>
        <mxCell id="0" />
        <mxCell id="1" parent="0" />
      </root>
    </mxGraphModel>
  </diagram>
</mxfile>
